# xmcd
# Track frame offsets:
# 183
# 12298
# 29475
# 41968
# 59683
# 73448
# 89425
# 103915
# 119798
# 131580
# 147173
# 158173
#
# Disc length: 2288 seconds
# Revision: 0
# Processed by: cddbd v1.4PL0 Copyright (c) Steve Scherf et al.
# Submitted via: VisiTrax 2.9.5.180 - For more info visit www.synapsa.com
#
DISCID=be08ee0c
DTITLE=Don Johnson - Ain't nothing like a jukebox
DYEAR=1996
DGENRE=
TTITLE0=Ain't nothing like a jukebox
TTITLE1=When it's your turn to fall
TTITLE2=I even went to church today
TTITLE3=Goodbye my broken heart
TTITLE4=Please tell me why
TTITLE5=I'm hanging in there
TTITLE6=A little piece of heaven
TTITLE7=Putting off tomorrow
TTITLE8=Gotta get some fun done
TTITLE9=Grandma's boy
TTITLE10=Katie barred the door
TTITLE11=My dreams just came true
EXTD=
EXTT0=
EXTT1=
EXTT2=
EXTT3=
EXTT4=
EXTT5=
EXTT6=
EXTT7=
EXTT8=
EXTT9=
EXTT10=
EXTT11=
PLAYORDER=
